<mxfile host="app.diagrams.net" agent="Mozilla/5.0 (Windows NT 10.0; Win64; x64) AppleWebKit/537.36 (KHTML, like Gecko) Chrome/135.0.0.0 Safari/537.36" version="26.2.14">
  <diagram name="페이지-1" id="qwC0LiVEyRehczCY5y1P">
    <mxGraphModel dx="3574" dy="4054" grid="0" gridSize="10" guides="1" tooltips="1" connect="1" arrows="1" fold="1" page="0" pageScale="1" pageWidth="827" pageHeight="1169" math="0" shadow="0">
      <root>
        <mxCell id="0" />
        <mxCell id="1" parent="0" />
        <mxCell id="0_xDM9P45KSNEn985rRY-1" value="" style="whiteSpace=wrap;strokeWidth=2;fontSize=30;" vertex="1" parent="1">
          <mxGeometry x="299" y="20" width="1188" height="2144" as="geometry" />
        </mxCell>
        <mxCell id="0_xDM9P45KSNEn985rRY-12" value="Create new process using fork" style="whiteSpace=wrap;strokeWidth=2;fontSize=30;" vertex="1" parent="1">
          <mxGeometry x="940" y="45" width="260" height="78" as="geometry" />
        </mxCell>
        <mxCell id="0_xDM9P45KSNEn985rRY-13" value="Close server socket" style="whiteSpace=wrap;strokeWidth=2;fontSize=30;" vertex="1" parent="1">
          <mxGeometry x="816" y="196" width="201" height="70" as="geometry" />
        </mxCell>
        <mxCell id="0_xDM9P45KSNEn985rRY-14" value="Read HTTP request from client" style="whiteSpace=wrap;strokeWidth=2;fontSize=30;" vertex="1" parent="1">
          <mxGeometry x="785" y="300" width="260" height="78" as="geometry" />
        </mxCell>
        <mxCell id="0_xDM9P45KSNEn985rRY-15" value="Get current time" style="whiteSpace=wrap;strokeWidth=2;fontSize=30;" vertex="1" parent="1">
          <mxGeometry x="785" y="428" width="259" height="54" as="geometry" />
        </mxCell>
        <mxCell id="0_xDM9P45KSNEn985rRY-16" value="Print HTTP request" style="whiteSpace=wrap;strokeWidth=2;fontSize=30;" vertex="1" parent="1">
          <mxGeometry x="770.5" y="532" width="292" height="54" as="geometry" />
        </mxCell>
        <mxCell id="0_xDM9P45KSNEn985rRY-17" value="Parse method and URL" style="whiteSpace=wrap;strokeWidth=2;fontSize=30;" vertex="1" parent="1">
          <mxGeometry x="725" y="644" width="379" height="54" as="geometry" />
        </mxCell>
        <mxCell id="0_xDM9P45KSNEn985rRY-18" value="Is valid GET and non-static URL" style="rhombus;strokeWidth=2;whiteSpace=wrap;fontSize=30;" vertex="1" parent="1">
          <mxGeometry x="776" y="740" width="278" height="278" as="geometry" />
        </mxCell>
        <mxCell id="0_xDM9P45KSNEn985rRY-19" value="Exit process" style="whiteSpace=wrap;strokeWidth=2;fontSize=30;" vertex="1" parent="1">
          <mxGeometry x="531" y="1091" width="164" height="88" as="geometry" />
        </mxCell>
        <mxCell id="0_xDM9P45KSNEn985rRY-20" value="Hash URL using SHA1" style="whiteSpace=wrap;strokeWidth=2;fontSize=30;" vertex="1" parent="1">
          <mxGeometry x="884" y="1094" width="327" height="54" as="geometry" />
        </mxCell>
        <mxCell id="0_xDM9P45KSNEn985rRY-21" value="Split hash into directory name and file name" style="whiteSpace=wrap;strokeWidth=2;fontSize=30;" vertex="1" parent="1">
          <mxGeometry x="914" y="1182" width="289" height="107" as="geometry" />
        </mxCell>
        <mxCell id="0_xDM9P45KSNEn985rRY-22" value="Create cache and subdirectory" style="whiteSpace=wrap;strokeWidth=2;fontSize=30;" vertex="1" parent="1">
          <mxGeometry x="909" y="1325" width="286" height="91" as="geometry" />
        </mxCell>
        <mxCell id="0_xDM9P45KSNEn985rRY-23" value="Check if cache file exists" style="whiteSpace=wrap;strokeWidth=2;fontSize=30;" vertex="1" parent="1">
          <mxGeometry x="922" y="1456" width="260" height="72" as="geometry" />
        </mxCell>
        <mxCell id="0_xDM9P45KSNEn985rRY-24" value="Cache hit or miss" style="rhombus;strokeWidth=2;whiteSpace=wrap;fontSize=30;" vertex="1" parent="1">
          <mxGeometry x="940" y="1555" width="177" height="177" as="geometry" />
        </mxCell>
        <mxCell id="0_xDM9P45KSNEn985rRY-25" value="Increase miss count, create cache file, send MISS, log MISS" style="whiteSpace=wrap;strokeWidth=2;fontSize=30;" vertex="1" parent="1">
          <mxGeometry x="599" y="1782" width="299" height="138" as="geometry" />
        </mxCell>
        <mxCell id="0_xDM9P45KSNEn985rRY-26" value="Increase hit count, send HIT, log HIT" style="whiteSpace=wrap;strokeWidth=2;fontSize=30;" vertex="1" parent="1">
          <mxGeometry x="1053" y="1794" width="286" height="101" as="geometry" />
        </mxCell>
        <mxCell id="0_xDM9P45KSNEn985rRY-27" value="Send HTTP response to client" style="whiteSpace=wrap;strokeWidth=2;fontSize=30;" vertex="1" parent="1">
          <mxGeometry x="898" y="1957" width="260" height="78" as="geometry" />
        </mxCell>
        <mxCell id="0_xDM9P45KSNEn985rRY-28" value="Close client socket and exit" style="whiteSpace=wrap;strokeWidth=2;fontSize=30;" vertex="1" parent="1">
          <mxGeometry x="884" y="2074" width="287" height="75" as="geometry" />
        </mxCell>
        <mxCell id="0_xDM9P45KSNEn985rRY-29" value="Close client socket" style="whiteSpace=wrap;strokeWidth=2;fontSize=30;" vertex="1" parent="1">
          <mxGeometry x="1218" y="196" width="218" height="77" as="geometry" />
        </mxCell>
        <mxCell id="0_xDM9P45KSNEn985rRY-30" value="Clean up zombie children using waitpid" style="whiteSpace=wrap;strokeWidth=2;fontSize=30;" vertex="1" parent="1">
          <mxGeometry x="1185" y="300" width="283" height="130" as="geometry" />
        </mxCell>
        <mxCell id="0_xDM9P45KSNEn985rRY-39" value="Child" style="curved=1;startArrow=none;endArrow=block;exitX=0.19;exitY=1;entryX=0.5;entryY=0;rounded=0;fontSize=30;startSize=8;endSize=8;" edge="1" parent="1" source="0_xDM9P45KSNEn985rRY-12" target="0_xDM9P45KSNEn985rRY-13">
          <mxGeometry relative="1" as="geometry">
            <Array as="points">
              <mxPoint x="915" y="160" />
            </Array>
          </mxGeometry>
        </mxCell>
        <mxCell id="0_xDM9P45KSNEn985rRY-40" value="" style="curved=1;startArrow=none;endArrow=block;exitX=0.5;exitY=1;entryX=0.5;entryY=0;rounded=0;fontSize=30;startSize=8;endSize=8;" edge="1" parent="1" source="0_xDM9P45KSNEn985rRY-13" target="0_xDM9P45KSNEn985rRY-14">
          <mxGeometry relative="1" as="geometry">
            <Array as="points" />
          </mxGeometry>
        </mxCell>
        <mxCell id="0_xDM9P45KSNEn985rRY-41" value="" style="curved=1;startArrow=none;endArrow=block;exitX=0.5;exitY=1;entryX=0.5;entryY=0;rounded=0;fontSize=30;startSize=8;endSize=8;" edge="1" parent="1" source="0_xDM9P45KSNEn985rRY-14" target="0_xDM9P45KSNEn985rRY-15">
          <mxGeometry relative="1" as="geometry">
            <Array as="points" />
          </mxGeometry>
        </mxCell>
        <mxCell id="0_xDM9P45KSNEn985rRY-42" value="" style="curved=1;startArrow=none;endArrow=block;exitX=0.5;exitY=1;entryX=0.5;entryY=0;rounded=0;fontSize=30;startSize=8;endSize=8;" edge="1" parent="1" source="0_xDM9P45KSNEn985rRY-15" target="0_xDM9P45KSNEn985rRY-16">
          <mxGeometry relative="1" as="geometry">
            <Array as="points" />
          </mxGeometry>
        </mxCell>
        <mxCell id="0_xDM9P45KSNEn985rRY-43" value="" style="curved=1;startArrow=none;endArrow=block;exitX=0.5;exitY=1;entryX=0.5;entryY=0;rounded=0;fontSize=30;startSize=8;endSize=8;" edge="1" parent="1" source="0_xDM9P45KSNEn985rRY-16" target="0_xDM9P45KSNEn985rRY-17">
          <mxGeometry relative="1" as="geometry">
            <Array as="points" />
          </mxGeometry>
        </mxCell>
        <mxCell id="0_xDM9P45KSNEn985rRY-44" value="" style="curved=1;startArrow=none;endArrow=block;exitX=0.5;exitY=1;entryX=0.5;entryY=0;rounded=0;fontSize=30;startSize=8;endSize=8;" edge="1" parent="1" source="0_xDM9P45KSNEn985rRY-17" target="0_xDM9P45KSNEn985rRY-18">
          <mxGeometry relative="1" as="geometry">
            <Array as="points" />
          </mxGeometry>
        </mxCell>
        <mxCell id="0_xDM9P45KSNEn985rRY-45" value="No" style="curved=1;startArrow=none;endArrow=block;exitX=0;exitY=0.79;entryX=0.5;entryY=0;rounded=0;fontSize=30;startSize=8;endSize=8;" edge="1" parent="1" source="0_xDM9P45KSNEn985rRY-18" target="0_xDM9P45KSNEn985rRY-19">
          <mxGeometry relative="1" as="geometry">
            <Array as="points">
              <mxPoint x="612" y="1055" />
            </Array>
          </mxGeometry>
        </mxCell>
        <mxCell id="0_xDM9P45KSNEn985rRY-46" value="Yes" style="curved=1;startArrow=none;endArrow=block;exitX=0.82;exitY=1;entryX=0.5;entryY=0;rounded=0;fontSize=30;startSize=8;endSize=8;" edge="1" parent="1" source="0_xDM9P45KSNEn985rRY-18" target="0_xDM9P45KSNEn985rRY-20">
          <mxGeometry relative="1" as="geometry">
            <Array as="points">
              <mxPoint x="1028" y="1055" />
            </Array>
          </mxGeometry>
        </mxCell>
        <mxCell id="0_xDM9P45KSNEn985rRY-47" value="" style="curved=1;startArrow=none;endArrow=block;exitX=0.5;exitY=1;entryX=0.5;entryY=0;rounded=0;fontSize=30;startSize=8;endSize=8;" edge="1" parent="1" source="0_xDM9P45KSNEn985rRY-20" target="0_xDM9P45KSNEn985rRY-21">
          <mxGeometry relative="1" as="geometry">
            <Array as="points" />
          </mxGeometry>
        </mxCell>
        <mxCell id="0_xDM9P45KSNEn985rRY-48" value="" style="curved=1;startArrow=none;endArrow=block;exitX=0.5;exitY=1;entryX=0.5;entryY=0;rounded=0;fontSize=30;startSize=8;endSize=8;" edge="1" parent="1" source="0_xDM9P45KSNEn985rRY-21" target="0_xDM9P45KSNEn985rRY-22">
          <mxGeometry relative="1" as="geometry">
            <Array as="points" />
          </mxGeometry>
        </mxCell>
        <mxCell id="0_xDM9P45KSNEn985rRY-49" value="" style="curved=1;startArrow=none;endArrow=block;exitX=0.5;exitY=1;entryX=0.5;entryY=0;rounded=0;fontSize=30;startSize=8;endSize=8;" edge="1" parent="1" source="0_xDM9P45KSNEn985rRY-22" target="0_xDM9P45KSNEn985rRY-23">
          <mxGeometry relative="1" as="geometry">
            <Array as="points" />
          </mxGeometry>
        </mxCell>
        <mxCell id="0_xDM9P45KSNEn985rRY-50" value="" style="curved=1;startArrow=none;endArrow=block;exitX=0.5;exitY=1;entryX=0.5;entryY=0;rounded=0;fontSize=30;startSize=8;endSize=8;" edge="1" parent="1" source="0_xDM9P45KSNEn985rRY-23" target="0_xDM9P45KSNEn985rRY-24">
          <mxGeometry relative="1" as="geometry">
            <Array as="points" />
          </mxGeometry>
        </mxCell>
        <mxCell id="0_xDM9P45KSNEn985rRY-51" value="Miss" style="curved=1;startArrow=none;endArrow=block;exitX=0;exitY=0.73;entryX=0.5;entryY=0;rounded=0;fontSize=30;startSize=8;endSize=8;" edge="1" parent="1" source="0_xDM9P45KSNEn985rRY-24" target="0_xDM9P45KSNEn985rRY-25">
          <mxGeometry relative="1" as="geometry">
            <Array as="points">
              <mxPoint x="754" y="1769" />
            </Array>
          </mxGeometry>
        </mxCell>
        <mxCell id="0_xDM9P45KSNEn985rRY-52" value="Hit" style="curved=1;startArrow=none;endArrow=block;exitX=1;exitY=0.9;entryX=0.5;entryY=0;rounded=0;fontSize=30;startSize=8;endSize=8;" edge="1" parent="1" source="0_xDM9P45KSNEn985rRY-24" target="0_xDM9P45KSNEn985rRY-26">
          <mxGeometry relative="1" as="geometry">
            <Array as="points">
              <mxPoint x="1183" y="1769" />
            </Array>
          </mxGeometry>
        </mxCell>
        <mxCell id="0_xDM9P45KSNEn985rRY-53" value="" style="curved=1;startArrow=none;endArrow=block;exitX=0.5;exitY=1;entryX=0;entryY=0.11;rounded=0;fontSize=30;startSize=8;endSize=8;" edge="1" parent="1" source="0_xDM9P45KSNEn985rRY-25" target="0_xDM9P45KSNEn985rRY-27">
          <mxGeometry relative="1" as="geometry">
            <Array as="points">
              <mxPoint x="754" y="1932" />
            </Array>
          </mxGeometry>
        </mxCell>
        <mxCell id="0_xDM9P45KSNEn985rRY-54" value="" style="curved=1;startArrow=none;endArrow=block;exitX=0.5;exitY=1;entryX=0.86;entryY=0;rounded=0;fontSize=30;startSize=8;endSize=8;" edge="1" parent="1" source="0_xDM9P45KSNEn985rRY-26" target="0_xDM9P45KSNEn985rRY-27">
          <mxGeometry relative="1" as="geometry">
            <Array as="points">
              <mxPoint x="1183" y="1932" />
            </Array>
          </mxGeometry>
        </mxCell>
        <mxCell id="0_xDM9P45KSNEn985rRY-55" value="" style="curved=1;startArrow=none;endArrow=block;exitX=0.5;exitY=1;entryX=0.5;entryY=0;rounded=0;fontSize=30;startSize=8;endSize=8;" edge="1" parent="1" source="0_xDM9P45KSNEn985rRY-27" target="0_xDM9P45KSNEn985rRY-28">
          <mxGeometry relative="1" as="geometry">
            <Array as="points" />
          </mxGeometry>
        </mxCell>
        <mxCell id="0_xDM9P45KSNEn985rRY-56" value="Parent" style="curved=1;startArrow=none;endArrow=block;exitX=1;exitY=0.97;entryX=0.5;entryY=0;rounded=0;fontSize=30;startSize=8;endSize=8;" edge="1" parent="1" source="0_xDM9P45KSNEn985rRY-12" target="0_xDM9P45KSNEn985rRY-29">
          <mxGeometry relative="1" as="geometry">
            <Array as="points">
              <mxPoint x="1338" y="160" />
            </Array>
          </mxGeometry>
        </mxCell>
        <mxCell id="0_xDM9P45KSNEn985rRY-57" value="" style="curved=1;startArrow=none;endArrow=block;exitX=0.5;exitY=1;entryX=0.5;entryY=0;rounded=0;fontSize=30;startSize=8;endSize=8;" edge="1" parent="1" source="0_xDM9P45KSNEn985rRY-29" target="0_xDM9P45KSNEn985rRY-30">
          <mxGeometry relative="1" as="geometry">
            <Array as="points" />
          </mxGeometry>
        </mxCell>
        <mxCell id="0_xDM9P45KSNEn985rRY-58" value="" style="rounded=0;whiteSpace=wrap;html=1;" vertex="1" parent="1">
          <mxGeometry x="299" y="-40" width="1188" height="60" as="geometry" />
        </mxCell>
        <mxCell id="0_xDM9P45KSNEn985rRY-61" value="&lt;font style=&quot;font-size: 30px;&quot;&gt;while(1)&lt;/font&gt;" style="text;html=1;align=center;verticalAlign=middle;resizable=0;points=[];autosize=1;strokeColor=none;fillColor=none;fontSize=16;" vertex="1" parent="1">
          <mxGeometry x="859" y="-34" width="123" height="48" as="geometry" />
        </mxCell>
        <mxCell id="0_xDM9P45KSNEn985rRY-67" value="Get Home Directory" style="whiteSpace=wrap;strokeWidth=2;fontSize=30;" vertex="1" parent="1">
          <mxGeometry x="822" y="-1398.5" width="203" height="98" as="geometry" />
        </mxCell>
        <mxCell id="0_xDM9P45KSNEn985rRY-68" value="Create log directory" style="whiteSpace=wrap;strokeWidth=2;fontSize=30;" vertex="1" parent="1">
          <mxGeometry x="831" y="-1267.5" width="194" height="83" as="geometry" />
        </mxCell>
        <mxCell id="0_xDM9P45KSNEn985rRY-69" value="Initialize shared memory for hit and miss count" style="whiteSpace=wrap;strokeWidth=2;fontSize=30;" vertex="1" parent="1">
          <mxGeometry x="788" y="-1133.5" width="270" height="107" as="geometry" />
        </mxCell>
        <mxCell id="0_xDM9P45KSNEn985rRY-70" value="Register SIGINT handler" style="whiteSpace=wrap;strokeWidth=2;fontSize=30;" vertex="1" parent="1">
          <mxGeometry x="806.5" y="-965.5" width="233" height="90" as="geometry" />
        </mxCell>
        <mxCell id="0_xDM9P45KSNEn985rRY-71" value="Create server socket" style="whiteSpace=wrap;strokeWidth=2;fontSize=30;" vertex="1" parent="1">
          <mxGeometry x="814" y="-804.5" width="213" height="75" as="geometry" />
        </mxCell>
        <mxCell id="0_xDM9P45KSNEn985rRY-72" value="Set server address" style="whiteSpace=wrap;strokeWidth=2;fontSize=30;" vertex="1" parent="1">
          <mxGeometry x="813" y="-658.5" width="219" height="88" as="geometry" />
        </mxCell>
        <mxCell id="0_xDM9P45KSNEn985rRY-73" style="edgeStyle=none;curved=1;rounded=0;orthogonalLoop=1;jettySize=auto;html=1;exitX=0.5;exitY=1;exitDx=0;exitDy=0;entryX=0.5;entryY=0;entryDx=0;entryDy=0;fontSize=12;startSize=8;endSize=8;" edge="1" parent="1" source="0_xDM9P45KSNEn985rRY-74" target="0_xDM9P45KSNEn985rRY-76">
          <mxGeometry relative="1" as="geometry" />
        </mxCell>
        <mxCell id="0_xDM9P45KSNEn985rRY-74" value="Bind and listen for clients" style="whiteSpace=wrap;strokeWidth=2;fontSize=30;" vertex="1" parent="1">
          <mxGeometry x="776.5" y="-508.5" width="288" height="93" as="geometry" />
        </mxCell>
        <mxCell id="0_xDM9P45KSNEn985rRY-75" style="edgeStyle=none;curved=1;rounded=0;orthogonalLoop=1;jettySize=auto;html=1;exitX=0.5;exitY=1;exitDx=0;exitDy=0;entryX=0.5;entryY=0;entryDx=0;entryDy=0;fontSize=12;startSize=8;endSize=8;" edge="1" parent="1" source="0_xDM9P45KSNEn985rRY-76" target="0_xDM9P45KSNEn985rRY-77">
          <mxGeometry relative="1" as="geometry" />
        </mxCell>
        <mxCell id="0_xDM9P45KSNEn985rRY-76" value="Accept client connection" style="whiteSpace=wrap;strokeWidth=2;fontSize=30;" vertex="1" parent="1">
          <mxGeometry x="795" y="-321.5" width="255" height="80" as="geometry" />
        </mxCell>
        <mxCell id="0_xDM9P45KSNEn985rRY-87" style="edgeStyle=none;curved=1;rounded=0;orthogonalLoop=1;jettySize=auto;html=1;exitX=0.5;exitY=1;exitDx=0;exitDy=0;fontSize=12;startSize=8;endSize=8;" edge="1" parent="1" source="0_xDM9P45KSNEn985rRY-77" target="0_xDM9P45KSNEn985rRY-61">
          <mxGeometry relative="1" as="geometry" />
        </mxCell>
        <mxCell id="0_xDM9P45KSNEn985rRY-77" value="Print connection info" style="whiteSpace=wrap;strokeWidth=2;fontSize=30;" vertex="1" parent="1">
          <mxGeometry x="813" y="-176.5" width="217.5" height="85" as="geometry" />
        </mxCell>
        <mxCell id="0_xDM9P45KSNEn985rRY-78" value="" style="curved=1;startArrow=none;endArrow=block;exitX=0.5;exitY=1;entryX=0.5;entryY=0;rounded=0;fontSize=30;startSize=8;endSize=8;" edge="1" parent="1" target="0_xDM9P45KSNEn985rRY-67">
          <mxGeometry relative="1" as="geometry">
            <Array as="points" />
            <mxPoint x="923.5" y="-1539.5" as="sourcePoint" />
          </mxGeometry>
        </mxCell>
        <mxCell id="0_xDM9P45KSNEn985rRY-79" value="" style="curved=1;startArrow=none;endArrow=block;exitX=0.5;exitY=1;entryX=0.5;entryY=0;rounded=0;fontSize=30;startSize=8;endSize=8;" edge="1" parent="1" source="0_xDM9P45KSNEn985rRY-67" target="0_xDM9P45KSNEn985rRY-68">
          <mxGeometry relative="1" as="geometry">
            <Array as="points" />
          </mxGeometry>
        </mxCell>
        <mxCell id="0_xDM9P45KSNEn985rRY-80" value="" style="curved=1;startArrow=none;endArrow=block;exitX=0.5;exitY=1;entryX=0.5;entryY=0;rounded=0;fontSize=30;startSize=8;endSize=8;" edge="1" parent="1" source="0_xDM9P45KSNEn985rRY-68" target="0_xDM9P45KSNEn985rRY-69">
          <mxGeometry relative="1" as="geometry">
            <Array as="points" />
          </mxGeometry>
        </mxCell>
        <mxCell id="0_xDM9P45KSNEn985rRY-81" value="" style="curved=1;startArrow=none;endArrow=block;exitX=0.5;exitY=1;entryX=0.5;entryY=0;rounded=0;fontSize=30;startSize=8;endSize=8;" edge="1" parent="1" source="0_xDM9P45KSNEn985rRY-69" target="0_xDM9P45KSNEn985rRY-70">
          <mxGeometry relative="1" as="geometry">
            <Array as="points" />
          </mxGeometry>
        </mxCell>
        <mxCell id="0_xDM9P45KSNEn985rRY-82" value="" style="curved=1;startArrow=none;endArrow=block;exitX=0.5;exitY=1;entryX=0.5;entryY=-0.01;rounded=0;fontSize=30;startSize=8;endSize=8;" edge="1" parent="1" source="0_xDM9P45KSNEn985rRY-70" target="0_xDM9P45KSNEn985rRY-71">
          <mxGeometry relative="1" as="geometry">
            <Array as="points" />
          </mxGeometry>
        </mxCell>
        <mxCell id="0_xDM9P45KSNEn985rRY-83" value="" style="curved=1;startArrow=none;endArrow=block;exitX=0.5;exitY=0.99;entryX=0.5;entryY=0;rounded=0;fontSize=30;startSize=8;endSize=8;" edge="1" parent="1" source="0_xDM9P45KSNEn985rRY-71" target="0_xDM9P45KSNEn985rRY-72">
          <mxGeometry relative="1" as="geometry">
            <Array as="points" />
          </mxGeometry>
        </mxCell>
        <mxCell id="0_xDM9P45KSNEn985rRY-84" value="" style="curved=1;startArrow=none;endArrow=block;exitX=0.5;exitY=1;entryX=0.5;entryY=0;rounded=0;fontSize=30;startSize=8;endSize=8;" edge="1" parent="1" source="0_xDM9P45KSNEn985rRY-72" target="0_xDM9P45KSNEn985rRY-74">
          <mxGeometry relative="1" as="geometry">
            <Array as="points" />
          </mxGeometry>
        </mxCell>
        <mxCell id="0_xDM9P45KSNEn985rRY-85" value="" style="ellipse;whiteSpace=wrap;html=1;" vertex="1" parent="1">
          <mxGeometry x="840" y="-1647" width="161" height="161" as="geometry" />
        </mxCell>
        <mxCell id="0_xDM9P45KSNEn985rRY-86" value="&lt;span style=&quot;color: rgb(0, 0, 0); font-family: Helvetica; font-size: 30px; font-style: normal; font-variant-ligatures: normal; font-variant-caps: normal; font-weight: 400; letter-spacing: normal; orphans: 2; text-align: center; text-indent: 0px; text-transform: none; widows: 2; word-spacing: 0px; -webkit-text-stroke-width: 0px; white-space: normal; background-color: rgb(236, 236, 236); text-decoration-thickness: initial; text-decoration-style: initial; text-decoration-color: initial; display: inline !important; float: none;&quot;&gt;Program Start&lt;/span&gt;" style="text;whiteSpace=wrap;html=1;" vertex="1" parent="1">
          <mxGeometry x="827.9957578822546" y="-1586.5" width="215" height="58" as="geometry" />
        </mxCell>
        <mxCell id="0_xDM9P45KSNEn985rRY-89" style="edgeStyle=none;curved=1;rounded=0;orthogonalLoop=1;jettySize=auto;html=1;exitX=0.75;exitY=1;exitDx=0;exitDy=0;entryX=0.581;entryY=0.029;entryDx=0;entryDy=0;entryPerimeter=0;fontSize=12;startSize=8;endSize=8;" edge="1" parent="1" source="0_xDM9P45KSNEn985rRY-58" target="0_xDM9P45KSNEn985rRY-12">
          <mxGeometry relative="1" as="geometry" />
        </mxCell>
      </root>
    </mxGraphModel>
  </diagram>
</mxfile>
